<svg xmlns="http://www.w3.org/2000/svg" xmlns:xlink="http://www.w3.org/1999/xlink" width="260" zoomAndPan="magnify" viewBox="0 0 194.87999 70.499998" height="94" preserveAspectRatio="xMidYMid meet" version="1.2"><defs><clipPath id="9a7ce65c6f"><path d="M 7.628906 4.910156 L 67.949219 4.910156 L 67.949219 65 L 7.628906 65 Z M 7.628906 4.910156 "/></clipPath></defs><g id="03f2ce388b"><g clip-rule="nonzero" clip-path="url(#9a7ce65c6f)"><path style=" stroke:none;fill-rule:nonzero;fill:#00e5ff;fill-opacity:1;" d="M 13.898438 4.910156 L 61.304688 4.910156 C 61.714844 4.910156 62.125 4.953125 62.527344 5.03125 C 62.929688 5.113281 63.324219 5.230469 63.703125 5.390625 C 64.085938 5.546875 64.445312 5.738281 64.789062 5.96875 C 65.132812 6.199219 65.449219 6.457031 65.738281 6.75 C 66.03125 7.039062 66.289062 7.355469 66.519531 7.699219 C 66.75 8.042969 66.941406 8.402344 67.097656 8.785156 C 67.257812 9.164062 67.375 9.558594 67.457031 9.960938 C 67.535156 10.363281 67.578125 10.773438 67.578125 11.183594 L 67.578125 58.589844 C 67.578125 59 67.535156 59.40625 67.457031 59.8125 C 67.375 60.214844 67.257812 60.609375 67.097656 60.988281 C 66.941406 61.371094 66.75 61.730469 66.519531 62.074219 C 66.289062 62.414062 66.03125 62.734375 65.738281 63.023438 C 65.449219 63.316406 65.132812 63.574219 64.789062 63.804688 C 64.445312 64.03125 64.085938 64.226562 63.703125 64.382812 C 63.324219 64.542969 62.929688 64.660156 62.527344 64.742188 C 62.125 64.820312 61.714844 64.863281 61.304688 64.863281 L 13.898438 64.863281 C 13.488281 64.863281 13.082031 64.820312 12.675781 64.742188 C 12.273438 64.660156 11.878906 64.542969 11.5 64.382812 C 11.117188 64.226562 10.757812 64.03125 10.414062 63.804688 C 10.074219 63.574219 9.753906 63.316406 9.464844 63.023438 C 9.171875 62.734375 8.914062 62.414062 8.683594 62.074219 C 8.457031 61.730469 8.261719 61.371094 8.105469 60.988281 C 7.945312 60.609375 7.828125 60.214844 7.746094 59.8125 C 7.667969 59.40625 7.628906 59 7.628906 58.589844 L 7.628906 11.183594 C 7.628906 10.773438 7.667969 10.363281 7.746094 9.960938 C 7.828125 9.558594 7.945312 9.164062 8.105469 8.785156 C 8.261719 8.402344 8.457031 8.042969 8.683594 7.699219 C 8.914062 7.355469 9.171875 7.039062 9.464844 6.75 C 9.753906 6.457031 10.074219 6.199219 10.414062 5.96875 C 10.757812 5.738281 11.117188 5.546875 11.5 5.390625 C 11.878906 5.230469 12.273438 5.113281 12.675781 5.03125 C 13.082031 4.953125 13.488281 4.910156 13.898438 4.910156 Z M 13.898438 4.910156 "/></g><g style="fill:#000000;fill-opacity:1;"><g transform="translate(15.517167, 57.6912)"><path style="stroke:none" d="M 31.890625 -12.078125 L 12.328125 -12.078125 L 8.0625 0 L 0.65625 0 L 18.921875 -48.28125 L 25.671875 -48.28125 L 43.5 0 L 35.9375 0 Z M 30.125 -17.296875 L 23.703125 -36.40625 L 22.34375 -40.859375 L 20.96875 -36.40625 L 14.1875 -17.296875 Z M 30.125 -17.296875 "/></g></g><g style="fill:#ffffff;fill-opacity:1;"><g transform="translate(73.799792, 52.138762)"><path style="stroke:none" d="M 7.65625 -23.4375 L 7.6875 -20.96875 C 8.757812 -21.695312 10.085938 -22.351562 11.671875 -22.9375 C 13.253906 -23.53125 14.769531 -23.828125 16.21875 -23.828125 C 17.832031 -23.828125 19.117188 -23.523438 20.078125 -22.921875 C 21.046875 -22.316406 21.75 -21.347656 22.1875 -20.015625 C 22.625 -18.691406 22.84375 -16.894531 22.84375 -14.625 L 22.84375 0 L 18.3125 0 L 18.3125 -14.640625 C 18.3125 -15.960938 18.207031 -17.007812 18 -17.78125 C 17.789062 -18.5625 17.410156 -19.144531 16.859375 -19.53125 C 16.316406 -19.914062 15.523438 -20.109375 14.484375 -20.109375 C 14.234375 -20.109375 14.046875 -20.097656 13.921875 -20.078125 C 13.097656 -20.054688 12.15625 -19.847656 11.09375 -19.453125 C 10.03125 -19.066406 9.050781 -18.550781 8.15625 -17.90625 L 8.15625 0 L 3.625 0 L 3.625 -23.4375 Z M 7.65625 -23.4375 "/></g><g transform="translate(100.142143, 52.138762)"><path style="stroke:none" d="M -1.625 6.8125 C -1.40625 6.925781 -1.035156 7.03125 -0.515625 7.125 C 0.00390625 7.21875 0.4375 7.265625 0.78125 7.265625 C 1.976562 7.265625 2.804688 6.753906 3.265625 5.734375 C 3.734375 4.722656 3.96875 3.140625 3.96875 0.984375 L 3.96875 -23.4375 L 8.5 -23.4375 L 8.5 -0.765625 C 8.5 3.179688 7.890625 6.035156 6.671875 7.796875 C 5.460938 9.554688 3.648438 10.4375 1.234375 10.4375 C 0.785156 10.4375 0.234375 10.410156 -0.421875 10.359375 C -1.085938 10.316406 -1.488281 10.253906 -1.625 10.171875 Z M 3.1875 -30.53125 C 3.1875 -31.101562 3.347656 -31.632812 3.671875 -32.125 C 3.992188 -32.625 4.414062 -33.015625 4.9375 -33.296875 C 5.457031 -33.585938 5.984375 -33.734375 6.515625 -33.734375 C 7.453125 -33.734375 8.171875 -33.472656 8.671875 -32.953125 C 9.171875 -32.429688 9.421875 -31.765625 9.421875 -30.953125 C 9.421875 -30.347656 9.265625 -29.800781 8.953125 -29.3125 C 8.640625 -28.820312 8.226562 -28.4375 7.71875 -28.15625 C 7.207031 -27.882812 6.664062 -27.75 6.09375 -27.75 C 5.570312 -27.75 5.085938 -27.859375 4.640625 -28.078125 C 4.203125 -28.304688 3.847656 -28.632812 3.578125 -29.0625 C 3.316406 -29.488281 3.1875 -29.976562 3.1875 -30.53125 Z M 3.1875 -30.53125 "/></g><g transform="translate(111.964277, 52.138762)"><path style="stroke:none" d="M 22.109375 -23.484375 L 22.109375 0.328125 L 20.359375 0.328125 C 19.816406 0.328125 19.382812 0.285156 19.0625 0.203125 C 18.75 0.117188 18.507812 -0.0507812 18.34375 -0.3125 C 18.175781 -0.570312 18.09375 -0.960938 18.09375 -1.484375 L 18.09375 -2.0625 C 17.019531 -1.414062 15.785156 -0.851562 14.390625 -0.375 C 12.992188 0.09375 11.691406 0.328125 10.484375 0.328125 C 8.578125 0.328125 7.113281 -0.0703125 6.09375 -0.875 C 5.082031 -1.6875 4.394531 -2.8125 4.03125 -4.25 C 3.675781 -5.6875 3.5 -7.523438 3.5 -9.765625 L 3.5 -23.484375 L 8.03125 -23.484375 L 8.03125 -9.78125 C 8.03125 -7.875 8.171875 -6.46875 8.453125 -5.5625 C 8.734375 -4.664062 9.164062 -4.082031 9.75 -3.8125 C 10.332031 -3.539062 11.195312 -3.40625 12.34375 -3.40625 C 13.164062 -3.40625 14.09375 -3.582031 15.125 -3.9375 C 16.164062 -4.289062 16.984375 -4.660156 17.578125 -5.046875 L 17.578125 -23.484375 Z M 22.109375 -23.484375 "/></g><g transform="translate(137.688746, 52.138762)"><path style="stroke:none" d="M 30.359375 -23.828125 C 31.992188 -23.828125 33.296875 -23.53125 34.265625 -22.9375 C 35.242188 -22.351562 35.960938 -21.398438 36.421875 -20.078125 C 36.890625 -18.753906 37.125 -16.960938 37.125 -14.703125 L 37.125 0 L 32.59375 0 L 32.59375 -14.640625 C 32.59375 -16.015625 32.476562 -17.085938 32.25 -17.859375 C 32.03125 -18.640625 31.613281 -19.210938 31 -19.578125 C 30.382812 -19.941406 29.484375 -20.097656 28.296875 -20.046875 C 27.460938 -20.015625 26.515625 -19.8125 25.453125 -19.4375 C 24.398438 -19.0625 23.4375 -18.5625 22.5625 -17.9375 C 22.675781 -16.988281 22.734375 -15.910156 22.734375 -14.703125 L 22.734375 0 L 18.203125 0 L 18.203125 -14.640625 C 18.203125 -16.015625 18.085938 -17.085938 17.859375 -17.859375 C 17.640625 -18.640625 17.21875 -19.210938 16.59375 -19.578125 C 15.976562 -19.941406 15.085938 -20.097656 13.921875 -20.046875 C 13.109375 -20.015625 12.160156 -19.8125 11.078125 -19.4375 C 10.003906 -19.0625 9.03125 -18.550781 8.15625 -17.90625 L 8.15625 0 L 3.625 0 L 3.625 -23.4375 L 7.65625 -23.4375 L 7.6875 -20.96875 C 8.738281 -21.6875 9.992188 -22.332031 11.453125 -22.90625 C 12.921875 -23.476562 14.359375 -23.785156 15.765625 -23.828125 C 17.316406 -23.867188 18.570312 -23.660156 19.53125 -23.203125 C 20.5 -22.742188 21.238281 -21.976562 21.75 -20.90625 C 22.789062 -21.6875 24.113281 -22.367188 25.71875 -22.953125 C 27.320312 -23.535156 28.867188 -23.828125 30.359375 -23.828125 Z M 30.359375 -23.828125 "/></g><g transform="translate(178.304161, 52.138762)"><path style="stroke:none" d="M 3.03125 -2.734375 C 3.03125 -3.367188 3.1875 -3.953125 3.5 -4.484375 C 3.8125 -5.023438 4.222656 -5.457031 4.734375 -5.78125 C 5.242188 -6.101562 5.78125 -6.265625 6.34375 -6.265625 C 7.300781 -6.265625 8.046875 -5.953125 8.578125 -5.328125 C 9.109375 -4.710938 9.375 -3.953125 9.375 -3.046875 C 9.375 -2.398438 9.21875 -1.804688 8.90625 -1.265625 C 8.601562 -0.734375 8.191406 -0.3125 7.671875 0 C 7.160156 0.300781 6.613281 0.453125 6.03125 0.453125 C 5.507812 0.453125 5.015625 0.3125 4.546875 0.03125 C 4.085938 -0.25 3.71875 -0.632812 3.4375 -1.125 C 3.164062 -1.613281 3.03125 -2.148438 3.03125 -2.734375 Z M 3.03125 -2.734375 "/></g></g></g></svg>